<svg width="42" height="42" viewBox="0 0 42 42" fill="none" xmlns="http://www.w3.org/2000/svg">
<path d="M18.9985 18.9985C19.5293 18.4677 20.2492 18.1695 20.9999 18.1695C21.7506 18.1695 22.4705 18.4677 23.0013 18.9985C23.5321 19.5293 23.8303 20.2492 23.8303 20.9999C23.8303 21.7506 23.5321 22.4705 23.0013 23.0013C22.4705 23.5321 21.7506 23.8303 20.9999 23.8303C20.2492 23.8303 19.5293 23.5321 18.9985 23.0013C18.4677 22.4705 18.1695 21.7506 18.1695 20.9999C18.1695 20.2492 18.4677 19.5293 18.9985 18.9985Z" fill="white"/>
<path fill-rule="evenodd" clip-rule="evenodd" d="M14.447 14.447C15.084 13.8101 15.9479 13.4522 16.8487 13.4522H25.1511C27.0286 13.4522 28.5476 14.9712 28.5476 16.8487V25.1511C28.5476 26.0519 28.1898 26.9158 27.5528 27.5528C26.9158 28.1898 26.0519 28.5476 25.1511 28.5476H16.8487C14.9712 28.5476 13.4522 27.0286 13.4522 25.1511V16.8487C13.4522 15.9479 13.8101 15.084 14.447 14.447ZM26.787 15.2128C26.5658 14.9917 26.2659 14.8674 25.9531 14.8674C25.6403 14.8674 25.3403 14.9917 25.1192 15.2128C24.898 15.434 24.7738 15.734 24.7738 16.0467C24.7738 16.3595 24.898 16.6595 25.1192 16.8806C25.3403 17.1018 25.6403 17.2261 25.9531 17.2261C26.2659 17.2261 26.5658 17.1018 26.787 16.8806C27.0082 16.6595 27.1324 16.3595 27.1324 16.0467C27.1324 15.734 27.0082 15.434 26.787 15.2128ZM24.3355 17.6643C23.4509 16.7796 22.251 16.2826 20.9999 16.2826C19.7488 16.2826 18.5489 16.7796 17.6643 17.6643C16.7796 18.5489 16.2826 19.7488 16.2826 20.9999C16.2826 22.251 16.7796 23.4509 17.6643 24.3355C18.5489 25.2202 19.7488 25.7172 20.9999 25.7172C22.251 25.7172 23.4509 25.2202 24.3355 24.3355C25.2202 23.4509 25.7172 22.251 25.7172 20.9999C25.7172 19.7488 25.2202 18.5489 24.3355 17.6643Z" fill="white"/>
<path fill-rule="evenodd" clip-rule="evenodd" d="M21 38.4999C30.6649 38.4999 38.4999 30.6649 38.4999 21C38.4999 11.3351 30.6649 3.50012 21 3.50012C11.3351 3.50012 3.50012 11.3351 3.50012 21C3.50012 30.6649 11.3351 38.4999 21 38.4999ZM24.9624 11.5653H17.0374C15.5861 11.5653 14.1942 12.1418 13.168 13.168C12.1418 14.1942 11.5653 15.5861 11.5653 17.0374V24.9624C11.5653 27.9815 14.0183 30.4345 17.0374 30.4345H24.9624C26.4137 30.4345 27.8056 29.858 28.8318 28.8318C29.858 27.8056 30.4345 26.4137 30.4345 24.9624V17.0374C30.4345 14.0183 27.9815 11.5653 24.9624 11.5653Z" fill="white"/>
</svg>
