<svg width="21" height="20" viewBox="0 0 21 20" fill="none" xmlns="http://www.w3.org/2000/svg">
<g opacity="0.6">
<path d="M12.6324 10.3578L12.6099 10.3843L12.5913 10.4136C12.4629 10.6155 12.3315 10.8166 12.1972 11.0155L12.1863 11.0317L12.1767 11.0486C11.4959 12.2496 10.9929 13.4074 10.5246 14.4854L10.5208 14.494C10.0657 15.5417 9.64631 16.5055 9.12146 17.4034C9.12047 17.4051 9.11956 17.4065 9.11875 17.4078C9.09418 17.4129 9.0166 17.421 8.84997 17.3828C8.46927 17.2956 7.83781 17.0203 6.79719 16.4269L6.79563 16.4259L6.75876 16.4003L6.71783 16.3816L6.71599 16.3806C5.67536 15.7872 5.1182 15.3848 4.85139 15.1027C4.73461 14.9793 4.70289 14.9089 4.69508 14.8853C4.6958 14.884 4.69665 14.8825 4.69763 14.8808C5.22249 13.9829 5.85792 13.1423 6.54899 12.2292L6.55466 12.2217C7.2658 11.282 8.02951 10.2729 8.74215 9.09012L8.75219 9.07345L8.7609 9.05607C8.86826 8.84176 8.97878 8.62879 9.09169 8.41804L9.10807 8.38747L9.12004 8.35497C9.51052 7.29502 9.13381 6.35234 8.80629 5.53276C8.79832 5.51282 8.79038 5.49294 8.78248 5.47314C8.52566 4.8295 8.2858 4.21903 8.24352 3.5138C8.20337 2.84419 8.34152 2.05564 8.89817 1.07379C8.91945 1.07408 8.94786 1.07569 8.98486 1.07986C9.04068 1.08615 9.10535 1.09758 9.17943 1.11477L8.60628 1.81116C11.0095 4.80321 14.4581 6.79299 18.2771 7.39106L18.7508 7.46523C18.2809 8.08265 17.7936 8.45045 17.3156 8.68694C16.6761 9.00339 16.0209 9.10347 15.3281 9.20562C15.3068 9.20876 15.2854 9.21191 15.2639 9.21506C14.3815 9.34472 13.3666 9.49385 12.6324 10.3578ZM8.844 1.07805C8.84364 1.07775 8.84681 1.07665 8.85458 1.07563C8.84824 1.07784 8.84435 1.07835 8.844 1.07805ZM13.7516 3.31714L9.59547 1.23908C9.71483 1.28081 9.84754 1.33127 9.99441 1.39138C10.8593 1.74536 12.0953 2.38275 13.7516 3.31714ZM19.148 6.9452C19.151 6.95235 19.1516 6.95562 19.1512 6.95546C19.1507 6.9553 19.1492 6.95173 19.148 6.9452Z" stroke="#74E2C7"/>
</g>
</svg>
