<svg width="21" height="20" viewBox="0 0 21 20" fill="none" xmlns="http://www.w3.org/2000/svg">
<path fill-rule="evenodd" clip-rule="evenodd" d="M15.3994 9.69786C16.7695 9.49585 18.3287 9.26595 19.6111 7.07216C19.9297 6.52724 18.3084 5.33867 14.5363 3.18774C14.5228 3.18004 14.5092 3.17254 14.4956 3.16505C14.4822 3.15715 14.4688 3.14925 14.4551 3.14144C10.6831 0.990503 8.83023 0.198064 8.51169 0.74299C7.22928 2.93678 7.80731 4.3854 8.3152 5.65825C8.66011 6.52264 8.97268 7.30597 8.64827 8.18657C8.5333 8.40118 8.42067 8.6182 8.31119 8.83674C7.61221 9.99687 6.86186 10.9883 6.14768 11.932C5.45996 12.8407 4.80578 13.7051 4.26329 14.6331C4.00269 15.0789 4.37905 15.6236 6.46365 16.8123C6.47735 16.8201 6.49121 16.8272 6.50541 16.8337C6.51821 16.8426 6.53135 16.8509 6.54485 16.8586C8.62946 18.0473 9.29521 18.0968 9.5558 17.651C10.0983 16.723 10.5291 15.7313 10.9821 14.6887C11.4524 13.606 11.9466 12.4685 12.6144 11.2905C12.7513 11.0876 12.8853 10.8828 13.016 10.6771C13.6259 9.95936 14.469 9.83504 15.3994 9.69786ZM9 1.5C11.3255 4.39531 14.6626 6.32076 18.3582 6.89949L19 7L14 4L9 1.5Z" fill="#74E2C7"/>
</svg>
