<svg width="54" height="103" viewBox="0 0 54 103" fill="none" xmlns="http://www.w3.org/2000/svg">
<g filter="url(#filter0_d_242_377)">
<path d="M31.8775 89.8245C21.2892 83.8547 14.7115 75.0335 12.8842 62.5606C11.567 53.5869 12.2537 44.6426 13.0944 35.6924C13.5961 30.3498 13.9688 25.0043 13.3439 19.6354C12.8366 15.2775 11.2363 11.3739 8.94659 7.74864C7.41637 5.32793 5.86653 2.91893 4 0C9.87985 2.49692 14.2883 5.8232 16.8639 11.4501C19.5124 17.2381 20.1598 23.4423 20.1682 29.7109C20.1766 37.2251 19.8487 44.7422 19.717 52.2594C19.6105 58.2232 20.0028 64.1314 21.1967 70.0045C22.7746 77.7648 26.3788 84.2445 31.8775 89.8245Z" fill="#74E2C7"/>
<path d="M42.1826 23.2225C47.1853 31.1411 49.3713 39.9506 49.9178 49.2906C50.4279 58.0093 48.4857 66.3353 46.2688 74.6261C45.2375 78.477 44.4387 82.3894 43.9006 86.3516C43.5335 89.0537 43.724 91.7675 44.0828 95C41.7622 92.9368 40.6468 90.6509 39.9349 88.2126C38.4271 83.0429 37.8638 77.7443 38.2366 72.3226C38.6597 66.1741 39.7331 60.1428 40.9971 54.1409C42.6282 46.3981 43.6988 38.6143 43.1607 30.6488C42.9926 28.146 42.3704 25.7253 42.1826 23.2225Z" fill="#74E2C7"/>
<path d="M36.4121 88.0133C34.1111 86.126 33.1414 83.3829 32.054 80.886C28.0099 71.5987 26.5833 61.8279 27.1467 51.5941C27.5951 43.3971 29.2738 35.414 30.1286 27.3049C30.7116 21.7835 30.4425 16.2329 28.1136 11.0368C27.9174 10.5972 27.7576 10.14 27.6175 9.677C27.5727 9.5334 27.6511 9.34585 27.71 8.88867C32.8107 14.9434 36.37 21.4787 36.597 29.5615C36.7204 33.9575 36.2271 38.3095 35.4676 42.638C33.9009 51.5707 32.7827 60.559 33.1414 69.6704C33.3488 74.9455 34.1392 80.1328 35.7619 85.1589C36.0477 86.0469 36.1851 86.9935 36.4121 88.0133Z" fill="#74E2C7"/>
</g>
<defs>
<filter id="filter0_d_242_377" x="0" y="0" width="54" height="103" filterUnits="userSpaceOnUse" color-interpolation-filters="sRGB">
<feFlood flood-opacity="0" result="BackgroundImageFix"/>
<feColorMatrix in="SourceAlpha" type="matrix" values="0 0 0 0 0 0 0 0 0 0 0 0 0 0 0 0 0 0 127 0" result="hardAlpha"/>
<feOffset dy="4"/>
<feGaussianBlur stdDeviation="2"/>
<feComposite in2="hardAlpha" operator="out"/>
<feColorMatrix type="matrix" values="0 0 0 0 0 0 0 0 0 0 0 0 0 0 0 0 0 0 0.25 0"/>
<feBlend mode="normal" in2="BackgroundImageFix" result="effect1_dropShadow_242_377"/>
<feBlend mode="normal" in="SourceGraphic" in2="effect1_dropShadow_242_377" result="shape"/>
</filter>
</defs>
</svg>
