<svg width="177" height="132" viewBox="0 0 177 132" fill="none" xmlns="http://www.w3.org/2000/svg">
<path d="M86.4223 105.863C88.9726 105.856 91.48 105.709 93.9706 105.308C94.0629 105.293 94.1579 105.267 94.2484 105.279C95.2662 105.403 96.2785 105.5 97.1752 104.817C98.2937 105.107 99.2846 104.433 100.351 104.371C103.514 104.185 106.678 104.042 109.842 103.877C112.012 103.764 114.182 103.637 116.352 103.522C117.281 103.473 118.211 103.44 119.141 103.402C119.657 103.381 119.748 103.489 119.849 104.039C119.939 104.532 119.615 104.559 119.306 104.599C117.151 104.88 115.001 105.214 112.838 105.415C108.759 105.794 104.675 106.115 100.628 106.79C100.597 106.795 100.566 106.801 100.535 106.802C99.4383 106.832 98.3263 106.771 97.3327 107.392C95.9029 107.16 94.651 107.966 93.2855 108.12C90.9934 108.378 88.7023 108.375 86.4065 108.189C83.2504 107.934 80.0896 107.737 76.94 107.418C73.48 107.068 70.0386 106.579 66.7623 105.278C65.3865 104.732 64.1384 103.991 63.0506 102.963C60.7343 100.775 60.5357 97.7844 63.1261 95.2059C63.5241 94.8097 63.9901 94.4822 64.4376 94.1414C64.9241 93.771 64.9484 93.7414 64.5662 93.2688C63.1783 91.5523 61.905 89.7547 60.7958 87.8349C60.1797 86.7695 59.6195 85.6754 59.09 84.5642C58.788 83.9303 58.8216 83.8835 59.4293 83.7002C60.3509 83.4233 61.0329 83.7193 61.4753 84.588C62.8642 87.3108 64.5009 89.8445 66.7874 91.8817C67.5014 92.5185 67.5005 92.5233 68.2928 92.0679C70.0731 91.0454 72.0203 90.5127 73.9861 90.0344C75.5866 89.6459 77.1879 89.2621 78.7865 88.864C79.6478 88.6492 79.604 88.6482 79.3802 87.81C78.3922 84.1069 79.1398 80.8391 81.787 78.0743C81.9808 77.8719 82.198 77.6762 82.4366 77.5359C83.0928 77.1531 83.64 76.7359 83.791 75.8796C83.8777 75.386 84.3363 75.0404 84.6896 74.6872C85.4427 73.9349 85.7419 73.0881 85.4436 72.0103C85.2945 71.4718 85.1668 70.8981 85.3681 70.3196C85.4744 70.0131 85.219 69.8881 85.0363 69.7124C84.0958 68.8026 84.1965 67.5873 84.1527 66.4197C84.1452 66.2345 84.299 66.1515 84.464 66.1305C84.587 66.1143 84.7119 66.1152 84.8359 66.1152C87.4458 66.1171 90.0548 66.1152 92.6647 66.1248C93.3237 66.1267 93.3834 66.1677 93.3451 66.8083C93.2752 67.9759 93.3041 69.1883 92.3105 70.0542C92.1017 70.2365 92.0793 70.4723 92.1297 70.7482C92.2648 71.5024 92.3636 72.2585 91.9796 72.9812C91.8398 73.2456 91.9619 73.4747 92.1343 73.6752C92.3599 73.9378 92.5911 74.1955 92.8232 74.4523C93.2752 74.9507 93.6332 75.5072 93.7432 76.187C93.7926 76.4944 93.9072 76.6948 94.171 76.8676C97.8603 79.2763 98.9798 82.819 98.4298 87.0826C98.3217 87.9246 98.2993 87.9313 99.0907 88.2244C100.85 88.8755 102.689 89.1924 104.51 89.5829C105.969 89.895 107.419 90.2359 108.793 90.8545C111.353 92.0058 112.692 93.9743 112.811 97.2555C112.836 97.9343 112.597 98.4775 112.124 98.9529C110.75 100.336 109.115 101.287 107.343 102.01C104.53 103.157 101.597 103.838 98.6153 104.302C95.8786 104.728 93.1214 104.87 90.3549 104.832C84.2058 104.748 78.4836 103.049 73.0913 100.078C70.953 98.8995 68.9695 97.4894 67.0848 95.9305C66.6513 95.5715 66.3111 95.52 65.8646 95.8713C65.4489 96.1978 64.9689 96.4317 64.5848 96.8126C63.6406 97.751 63.471 98.9253 64.1104 100.11C64.4357 100.712 64.9185 101.152 65.4452 101.552C67.1202 102.821 69.0291 103.563 71.022 104.101C73.1286 104.669 75.2827 104.965 77.4443 105.215C80.4391 105.559 83.4461 105.728 86.4233 105.864L86.4223 105.863ZM91.3681 102.39C95.9607 102.473 101.666 101.114 107.323 99.4646C107.985 99.2718 108.583 98.93 109.158 98.5491C110.565 97.6174 111.19 95.3901 109.531 93.8999C108.674 93.1295 107.687 92.6187 106.62 92.2512C103.764 91.266 100.782 91.1485 97.8156 90.8965C97.0764 90.8335 96.67 91.1562 96.3409 91.7605C96.01 92.3676 95.9634 92.9605 96.2943 93.5734C96.4603 93.8789 96.5973 94.2102 96.8107 94.4775C97.6795 95.5705 97.5797 97.1295 96.1769 98.2341C95.3725 98.867 94.4516 99.2422 93.4915 99.5105C90.4556 100.359 87.4039 100.29 84.3726 99.5143C83.2019 99.2145 82.0498 98.784 81.1475 97.8913C80.386 97.1381 80.194 96.1758 80.6172 95.1887C80.8036 94.7543 81.0599 94.3514 81.2734 93.9285C81.5483 93.3815 81.7264 92.8249 81.5567 92.1882C81.4467 91.7748 81.2752 91.5686 80.8213 91.4913C79.3858 91.2478 77.9737 91.4015 76.5634 91.644C74.193 92.0526 71.9802 93.0025 69.7189 93.7825C69.1764 93.9696 69.1643 94.1214 69.6238 94.5452C72.9683 97.6326 76.7424 99.9372 81.0935 101.222C84.0166 102.085 87.0021 102.366 91.37 102.39H91.3681Z" fill="#74E2C7"/>
<path d="M90.1368 0.00345589C94.4516 0.00441056 99.6425 0.703228 104.744 2.03976C110.274 3.48895 115.523 5.67419 120.49 8.5611C126.759 12.2041 132.283 16.798 137.037 22.3332C143.104 29.3977 147.54 37.4198 150.262 46.4233C151.117 49.2529 151.774 52.1284 152.27 55.043C152.358 55.5556 152.282 55.6396 151.814 55.4792C150.638 55.0745 149.476 54.6277 148.299 54.2286C147.798 54.0587 147.793 53.6272 147.713 53.2386C147.345 51.4362 146.902 49.6558 146.374 47.8944C144.435 41.4323 141.533 35.4656 137.684 29.9724C133.592 24.1317 128.649 19.1789 122.883 15.0987C116.776 10.7769 110.098 7.7315 102.876 5.95104C96.794 4.45126 90.6392 3.95578 84.3959 4.40161C78.4714 4.82453 72.7371 6.08851 67.1985 8.2642C60.2309 11.0003 53.9606 14.9182 48.4108 20.0353C46.5867 21.7174 44.8679 23.5045 43.2441 25.3881C42.806 25.896 42.7893 25.9027 42.3652 25.368C41.7602 24.6053 41.2019 23.8014 40.5736 23.0587C40.2213 22.6425 40.3015 22.3857 40.6305 22.0133C42.9664 19.368 45.4682 16.902 48.1759 14.6586C52.1495 11.3669 56.44 8.58784 61.0596 6.34341C66.4481 3.72571 72.0809 1.91088 77.9616 0.896071C81.6751 0.257398 85.4138 -0.0356855 90.1368 0.00345589Z" fill="#74E2C7"/>
<path d="M86.7551 132C82.6799 132.017 76.6165 131.146 70.6753 129.372C61.2581 126.561 52.9157 121.782 45.6173 115.074C39.7096 109.645 34.9642 103.302 31.3215 96.087C31.0046 95.4598 31.0083 95.4398 31.644 95.2574C32.5696 94.993 33.497 94.7381 34.4264 94.4889C35.0788 94.3142 35.0807 94.3209 35.4144 94.9567C38.2825 100.43 41.832 105.39 46.143 109.761C51.2873 114.977 57.1373 119.153 63.7413 122.224C72.409 126.255 81.4952 128.056 90.9953 127.709C98.3319 127.442 105.386 125.834 112.149 122.913C118.851 120.019 124.835 115.987 130.129 110.879C134.963 106.214 138.892 100.845 142.045 94.8689C142.425 94.1481 142.435 94.151 143.188 94.4049C144.043 94.6932 144.899 94.9787 145.75 95.2794C146.317 95.4799 146.343 95.5419 146.07 96.0899C143.856 100.521 141.183 104.642 138.055 108.451C134.622 112.631 130.747 116.335 126.417 119.521C120.211 124.088 113.444 127.47 106.065 129.561C100.434 131.156 94.7088 131.985 86.7551 131.999V132Z" fill="#74E2C7"/>
<path d="M76.5895 22.7713C76.501 22.653 76.4655 22.5231 76.5019 22.3761C76.6091 21.7823 76.4832 21.5637 75.8634 21.2677L75.8708 21.2735C75.8792 21.1188 75.8867 20.9632 75.8951 20.8085C76.2017 20.6844 76.5187 20.6959 76.8374 20.7322C77.1087 20.9642 77.4321 20.8677 77.7341 20.8687C79.878 20.8763 82.0209 20.8725 84.1648 20.8725C84.6933 20.8725 85.2218 20.8582 85.7484 20.8773C86.1828 20.8935 86.4596 20.7045 86.6041 20.2959C86.688 20.0572 86.8129 19.8186 86.8334 19.5723C86.908 18.6644 86.9891 17.7422 86.2182 17.0443C86.0113 16.7693 85.8053 16.4954 85.5984 16.2204C85.5107 15.7584 85.1491 15.5693 84.7865 15.4051C84.395 15.2276 84.2785 14.9335 84.2664 14.5125C84.2515 14.0256 84.4127 13.5139 84.1312 13.0519C84.0855 12.9173 84.0883 12.7865 84.1657 12.6624C84.7203 12.4122 85.3094 12.4857 85.8901 12.4619C86.1763 12.4504 86.5249 12.5946 86.7066 12.2079C87.2622 12.0714 87.8177 12.0876 88.3733 12.2041C88.6296 12.5726 88.8813 12.5774 89.1301 12.1955C89.6866 12.0628 90.2421 12.0514 90.7968 12.207C90.8769 12.4189 91.0484 12.4628 91.2442 12.4638C91.6142 12.4657 91.9843 12.4609 92.3534 12.4743C93.1196 12.5039 93.1736 12.5812 93.2277 13.3526C93.2687 13.9416 93.0814 14.5488 93.3526 15.1197C93.3946 15.2724 93.4421 15.4261 93.2771 15.5407C92.7169 15.5264 92.2247 15.66 91.9162 16.1956C91.8249 16.4085 91.6319 16.5183 91.4707 16.6605C91.0046 16.9813 90.7343 17.3851 90.9422 17.9875C90.9319 18.5746 90.9217 19.1608 90.9114 19.7479C90.7287 20.0171 90.7846 20.2081 91.0885 20.3188L91.151 20.3159L91.1519 20.3799C91.2675 20.7064 91.4585 20.7532 91.7195 20.5412C91.9172 20.5107 92.1129 20.4983 92.2891 20.6243C92.4018 20.8801 92.6265 20.8658 92.8455 20.8668C93.3116 20.8687 93.7767 20.8735 94.2428 20.8735C96.5404 20.8716 98.8381 20.8639 101.137 20.8735C101.446 20.8744 101.853 20.714 101.987 21.2152C101.862 21.3279 101.712 21.3126 101.563 21.304C100.866 21.4253 100.707 21.6888 100.803 22.5642C100.844 22.7064 100.835 22.8401 100.743 22.9604C100.375 23.5962 100.441 24.3733 100.108 25.0196L100.08 25.0492C99.8858 25.0673 99.7655 25.1657 99.7469 25.3738C99.7357 25.454 99.6919 25.4864 99.6136 25.4692C99.2566 25.4836 98.9304 25.5485 98.8157 25.9685C98.7467 26.0525 98.6591 26.0802 98.5547 26.0602C98.372 26.0659 98.18 26.0363 98.0076 26.0831C96.5414 26.4774 95.0472 26.5929 93.539 26.5938C92.9844 26.5938 92.4298 26.5957 91.8752 26.5957C91.6506 26.5957 91.438 26.6129 91.3579 26.8831C91.2358 26.9604 91.1062 26.9728 90.972 26.9222C90.7287 26.7036 90.6551 26.8774 90.5982 27.0912C90.4584 27.3595 90.258 27.5686 90.0045 27.7251C89.7947 27.7776 89.695 27.9218 89.6913 28.1356C89.6708 29.4063 89.9327 30.6139 90.478 31.7567C90.5777 31.8751 90.5964 32.0087 90.5525 32.1548C90.3232 32.7171 90.4379 33.3376 90.2561 33.9142C90.1648 34.2054 90.3279 34.4737 90.6141 34.615C91.0792 34.845 91.081 35.1429 90.8937 35.6174C90.1965 37.3873 90.3288 39.2203 90.6346 41.0494C90.6765 41.3015 90.807 41.5478 91.1482 41.3845C92.098 41.2967 93.0478 41.2766 93.9976 41.374C94.4683 41.6175 94.9717 41.4781 95.4582 41.4924C97.8407 41.5659 100.228 41.3578 102.607 41.6222L102.563 41.6595L102.601 41.6156C102.782 42.407 103.212 43.0428 103.781 43.5917C103.858 43.6079 103.888 43.6557 103.869 43.7349C103.925 44.3975 104.246 44.9111 104.86 45.0877C105.814 45.3636 106.74 45.7206 107.687 46.0156C112 47.3636 116.315 48.7068 120.628 50.0586C123.345 50.9112 126.059 51.7751 128.773 52.6382C128.928 52.6878 129.066 52.7374 129.194 52.5971C129.34 52.579 129.468 52.6114 129.572 52.7241C130.014 53.0534 130.481 53.3016 131.057 53.1785C131.395 53.1976 131.705 53.3074 131.995 53.484C133.001 54.1723 134.191 54.3241 135.311 54.6802C135.498 54.7394 135.696 54.9198 135.902 54.7088C136.049 54.6811 136.178 54.7146 136.283 54.8272C136.48 55.1671 136.838 55.1986 137.156 55.2998C139.776 56.1351 142.396 56.9733 145.021 57.7905C145.383 57.9031 145.747 58.1542 146.158 57.9471C146.5 57.9471 146.805 58.0674 147.094 58.243C147.734 58.7757 148.551 58.8655 149.293 59.1098C152.516 60.1734 155.757 61.1748 158.998 62.182C159.36 62.2946 159.723 62.5381 160.135 62.3519C160.669 62.392 161.153 62.6039 161.634 62.8206C161.708 63.0345 161.899 63.0584 162.075 63.1147C164.929 64.0254 167.783 64.9362 170.636 65.8508C170.849 65.9195 171.06 65.9262 171.275 65.8765C171.501 65.8689 171.71 65.9157 171.888 66.0665C172.204 66.4723 172.701 66.4885 173.126 66.6279C173.587 66.7797 173.872 67.0546 174.045 67.4918C174.392 68.3749 174.691 69.2818 175.105 70.1305C175.417 70.7692 175.478 71.5463 176.062 72.0418C176.172 72.163 176.234 72.3043 176.238 72.4714C176.137 73.0366 176.547 73.4518 176.657 73.9569C176.796 74.5917 176.757 74.6843 176.072 74.8934C175.993 74.8877 175.96 74.8456 175.974 74.7655C176.012 74.3473 175.957 73.9702 175.549 73.7478C175.417 73.6399 175.378 73.49 175.371 73.3268C175.459 72.9325 175.353 72.6203 175.003 72.4112C174.815 72.1611 174.672 71.8919 174.658 71.5673C174.471 70.2699 173.91 69.1157 173.336 67.9682C173.302 67.8995 173.185 67.8747 173.107 67.8288C172.223 67.2665 171.197 67.11 170.23 66.7959C166.655 65.6321 163.066 64.5095 159.478 63.3839C155.006 61.9805 150.528 60.5963 146.058 59.19C142.027 57.9222 138.004 56.6306 133.976 55.3561C128.615 53.6616 123.253 51.9718 117.89 50.2849C113.507 48.9064 109.124 47.5297 104.737 46.1636C104.084 45.9602 103.575 45.6357 103.249 44.9827C102.924 44.3354 102.488 43.7473 102.14 43.1106C101.935 42.7363 101.689 42.5616 101.257 42.5645C98.0896 42.5884 94.9223 42.5903 91.755 42.6027C91.4278 42.6036 90.2077 43.4361 90.1424 43.7177C90.1089 43.8609 90.1424 44.0328 90.1862 44.1788C90.4547 45.08 90.4221 45.9937 90.3521 46.9187C90.2878 47.7732 90.2804 48.6333 90.2673 49.4916C90.2599 50.0071 90.3754 50.5054 90.6271 50.9532C91.1183 51.8267 91.7839 51.8544 92.3618 51.0419C92.4522 50.914 92.5407 50.7851 92.6302 50.6563C92.949 50.4329 93.0646 50.1293 92.976 49.7436C92.9509 49.6386 92.9882 49.5613 93.0776 49.5068C93.8187 48.9713 94.4795 49.0734 95.0826 49.7551C95.1553 49.8372 95.2989 49.8543 95.4098 49.9011C95.5608 49.9851 95.6391 50.1054 95.5934 50.2878C95.4014 50.5188 95.4144 50.7097 95.6987 50.8472C95.8348 51.0954 95.8786 51.3446 95.709 51.5966C95.1674 51.967 94.4329 51.9269 93.9669 52.4558C93.841 52.5694 93.7031 52.6448 93.5269 52.5971C92.9844 52.5532 93.0208 52.9198 93.0627 53.2864C93.1513 54.0644 93.1531 54.0778 92.4401 54.0797C89.9672 54.0864 87.4933 54.0797 85.0205 54.0845C84.7073 54.0845 84.4025 54.0749 84.1247 53.904C84.093 53.7064 84.0809 53.5107 84.1843 53.3274C84.5115 53.2148 84.5264 53.0181 84.3298 52.7642C84.3176 52.6143 84.3046 52.4654 84.2925 52.3155C84.0567 51.8057 83.5971 51.693 83.1152 51.6224C83.0425 51.6405 82.9968 51.6128 82.9773 51.5384C82.9446 51.2882 82.789 51.2138 82.5662 51.2367C82.5168 51.2033 82.4683 51.1699 82.4189 51.1365C82.377 50.893 82.2185 50.83 82.0032 50.8567C81.9557 50.8233 81.9072 50.7909 81.8597 50.7575C81.8121 50.5026 81.6425 50.451 81.4234 50.4825C81.2967 50.4863 81.1876 50.4501 81.1158 50.3355C80.9089 49.9689 80.6041 49.8563 80.2126 49.9727C80.1194 50.0119 80.0476 49.9804 79.9908 49.9011C79.9852 49.6959 80.0281 49.4763 79.837 49.3226C79.851 49.1202 79.8649 48.9178 79.8799 48.7145C80.0551 48.387 79.8295 48.3775 79.6123 48.3603C79.5536 48.3393 79.4949 48.3192 79.4362 48.2982C78.7073 47.461 77.8152 46.8156 76.9838 46.0977C76.9456 46.0653 76.8645 46.0844 76.8039 46.0796L76.8095 46.0853C76.7545 45.5373 76.4115 45.2567 75.937 45.0982C75.7245 44.9808 75.5791 44.806 75.5064 44.5693C75.5232 44.3192 75.416 44.1741 75.1662 44.1512C74.9005 44.0461 74.8306 43.69 74.5305 43.6289C73.9973 43.9192 73.7233 44.3784 73.6804 44.9903C73.6105 45.3139 73.4595 45.5736 73.1444 45.7053C72.9925 45.7111 72.8284 45.6815 72.6896 45.7292C71.0658 46.281 69.4365 46.8147 67.7736 47.2338C67.6002 47.2777 67.5294 47.4037 67.4995 47.5679C67.4427 47.6548 67.369 47.6949 67.2674 47.6557C66.2095 47.7044 65.2038 47.9259 64.3266 48.5789C64.2213 48.6896 64.0936 48.7259 63.9463 48.7011C63.8643 48.6696 63.7702 48.5932 63.7031 48.6123C62.6964 48.9025 61.6869 49.1842 60.6923 49.5135C60.2673 49.6539 59.8134 49.7741 59.4797 50.1216C59.3697 50.2267 59.2392 50.2486 59.0966 50.2181C58.9418 50.0558 58.7694 50.0892 58.582 50.1531C57.9081 50.3832 57.2333 50.6123 56.5547 50.83C54.876 51.3675 53.1954 51.9002 51.5148 52.431C51.3395 52.4864 51.1568 52.5284 50.9741 52.5465C50.8194 52.5618 50.6544 52.5322 50.5966 52.346C50.5295 52.1293 50.6358 51.9727 50.8129 51.8782C50.949 51.8057 51.1009 51.7637 51.2491 51.7159C52.0768 51.4505 52.8924 51.1212 53.7379 50.9455C54.5152 50.7842 55.1919 50.2629 56.1502 50.3441C55.5639 49.7283 55.8099 49.1059 55.9889 48.5245C56.454 47.0152 56.9555 45.5211 57.6937 44.1158C57.9063 43.711 58.1477 43.2805 58.1672 42.7869C58.1467 42.7115 58.1719 42.6609 58.2437 42.6351C58.4049 42.6189 58.5522 42.5578 58.6352 42.4137C59.1273 41.5573 59.846 40.9148 60.5059 40.2036C61.8454 38.763 63.4672 37.9133 65.2877 37.3606C65.5356 37.2852 65.8739 37.3873 66.0166 37.0446C66.2626 36.9205 66.519 36.9205 66.78 36.9739C67.1966 37.1697 67.6161 37.1572 68.0364 36.9854C68.1744 36.9348 68.3058 36.9434 68.4279 37.0331C68.4801 37.1534 68.5594 37.2499 68.6908 37.267C69.7403 37.4102 70.7032 37.7787 71.5701 38.4088C71.7425 38.5339 71.9439 38.6293 72.1704 38.6169C72.3326 38.6398 72.4425 38.7391 72.5302 38.8728C72.5479 39.121 72.7212 39.2413 72.8918 39.3883C73.7037 40.0862 74.6666 40.5244 75.5595 41.0828C76.0032 41.3607 76.4338 41.5029 76.9484 41.4991C78.6178 41.4838 80.2872 41.4981 81.9566 41.4934C82.2288 41.4934 82.5168 41.564 82.7638 41.3731C83.9625 41.2814 85.1612 41.2871 86.3599 41.3807C86.4895 41.5 86.6461 41.5191 86.7682 41.4084C86.9322 41.2604 86.9024 41.0828 86.7505 40.9282C86.688 40.6552 86.7672 40.4041 86.8688 40.1578C87.1438 39.9248 87.1457 39.6699 86.9266 39.3979C86.9266 38.6895 86.9266 37.9811 86.9266 37.2728C87.1326 37.0599 87.1252 36.8699 86.8679 36.7076C86.7719 36.593 86.7439 36.4584 86.7598 36.3114C86.9592 36.0766 86.811 35.9973 86.6032 35.9448C86.564 35.8455 86.5249 35.7462 86.4848 35.647C86.4839 35.352 86.4829 35.057 86.482 34.762L86.4736 34.7706C86.701 34.8107 86.8549 34.7314 86.908 34.4889L86.9126 34.4374L86.9621 34.446C87.3601 34.0269 87.3731 33.8064 87.032 33.2708C86.9015 32.9538 86.9099 32.6398 87.0478 32.3276C87.3573 32.1099 87.3228 31.8512 87.1317 31.5753C87.0431 31.119 87.2445 30.7018 87.3358 30.2789C87.5241 29.4044 87.6276 28.5423 87.4076 27.6631C87.3302 26.9986 87.2529 26.9137 86.7206 26.9098C86.5267 26.9614 86.3338 26.9776 86.1464 26.8841C86.0476 26.5604 85.782 26.5977 85.5396 26.5957C84.9552 26.5919 84.3708 26.5728 83.7873 26.5986C83.1506 26.6273 82.5019 26.4659 81.8764 26.7094C81.7394 26.7599 81.6089 26.7552 81.4868 26.6673C81.0469 26.3809 80.6861 26.316 79.8146 26.3666C79.6729 26.3848 79.5415 26.3657 79.4371 26.254C79.3383 26.0201 79.1547 26.0115 78.9496 26.0611C78.8387 26.0755 78.7501 26.0382 78.6905 25.938C78.2002 25.4053 77.75 24.8248 77.09 24.4878C76.8496 24.2053 76.7358 23.8749 76.7424 23.4998C76.8188 23.2286 76.912 22.9537 76.5923 22.7685L76.5895 22.7713ZM82.9819 47.7827L82.9791 47.7789C82.9614 48.072 82.9782 48.3421 83.3613 48.3555C83.5095 48.3899 83.5738 48.4882 83.5673 48.64C83.5253 48.9083 83.6046 49.0925 83.8935 49.1307L83.8982 49.1383C83.887 49.5565 84.0007 49.8715 84.4836 49.882C84.8452 50.1407 85.1705 50.4376 85.4017 50.8291C85.7624 51.6548 86.2108 51.8019 86.7085 51.2558C86.8558 51.0563 87.0031 50.8577 87.1503 50.6582C87.3834 50.6018 87.5176 50.5092 87.2855 50.2792C87.333 49.5508 87.3274 48.8262 87.2734 48.0949C87.1755 46.7746 86.8921 45.439 87.4561 44.1445C87.5288 43.9774 87.5157 43.7349 87.3479 43.6175C86.715 43.1745 86.2695 42.5282 85.2908 42.5683C83.0323 42.6609 80.7644 42.6581 78.5022 42.5196C78.2421 42.0977 77.9206 42.1998 77.6791 42.491C77.4722 42.7402 77.5859 42.9645 77.9206 43.0227C78.2235 43.122 78.3615 43.3798 78.4938 43.6442C78.4826 44.05 78.6187 44.3316 79.0643 44.3497C79.1742 44.3717 79.2386 44.4347 79.2414 44.554C79.2283 44.9731 79.3374 45.2901 79.8258 45.292L79.8193 45.2843C79.8072 45.5526 79.9339 45.6834 80.194 45.6815C80.5733 45.9316 80.8511 46.282 81.1056 46.6543C81.1345 46.9235 81.3041 47.0409 81.5446 47.0171C81.9221 46.9789 82.254 47.1765 82.6156 47.2061L82.6119 47.2004C82.5867 47.4944 82.5998 47.7617 82.9829 47.7827H82.9819ZM70.3006 45.5182C70.5336 45.7674 70.6212 45.6194 70.6715 45.375C70.8412 45.2318 71.0434 45.2032 71.2532 45.2032C71.489 45.3139 71.6885 45.313 71.791 45.018C71.914 44.9903 72.038 44.9626 72.161 44.9349C72.5059 45.1994 72.4975 44.9254 72.5143 44.6915C72.807 44.176 73.0549 43.6261 73.4045 43.1564C73.7559 42.6838 73.6328 42.365 73.2619 42.028C72.6429 41.4657 72.0296 40.8976 71.4144 40.3325C71.3697 40.0232 71.1814 39.9535 70.9129 40.0165C70.5224 39.8456 70.1309 39.6738 69.7403 39.5029C69.6844 39.2642 69.5921 39.1258 69.3694 39.3673C69.2333 39.3979 69.1019 39.4007 68.9956 39.2862C68.9154 39.0313 68.798 38.9558 68.6153 39.205C67.6776 39.1821 66.7464 39.2556 65.818 39.3797C65.4014 39.1563 65.1059 39.3119 64.884 39.6948C64.5998 39.901 64.2866 40.0413 63.9473 40.1224C63.6565 39.88 63.6182 40.1034 63.5828 40.3306C63.4859 40.4509 63.3684 40.533 63.21 40.5368C62.9248 40.5253 62.6628 40.5482 62.66 40.9406C62.6414 41.0542 62.5715 41.1058 62.4634 41.1096C62.0914 41.0733 61.8733 41.2127 61.9013 41.6299C61.6384 42.0089 61.3262 42.3401 60.9804 42.6399C60.3875 42.7182 60.299 43.1726 60.2542 43.6604L60.2561 43.7387L60.1899 43.7788C59.64 43.9239 59.5356 44.1072 59.6446 44.7297C59.6484 44.8891 59.6185 45.0323 59.4619 45.1115C59.3771 45.145 59.2513 45.1536 59.2131 45.2166C58.4898 46.4319 58.1719 47.818 57.6658 49.125C57.5772 49.3541 57.7385 49.6567 57.9566 49.6061C58.4357 49.4963 59.022 49.5536 59.297 48.9713C59.3837 48.892 59.4815 48.8691 59.5915 48.9063C59.708 48.9379 59.8311 48.955 59.9401 49.0047C60.5255 49.271 60.5246 49.2739 60.6001 48.5531C60.7604 48.3966 60.9617 48.388 61.1659 48.3861C61.4287 48.6648 61.6972 48.4109 61.9209 48.3421C62.6237 48.1283 63.3983 48.0701 63.9603 47.4963C64.0657 47.4056 64.1878 47.3779 64.322 47.3903C64.3993 47.5001 64.5009 47.566 64.6333 47.5249C66.2431 47.0218 67.8528 46.5187 69.4598 46.0051C69.6593 45.9412 69.8727 45.8571 69.9268 45.5994C70.0368 45.503 70.1617 45.4772 70.2996 45.5182H70.3006Z" fill="#74E2C7"/>
<path d="M58.1626 42.7907C58.143 43.2843 57.9025 43.7149 57.6891 44.1196C56.9518 45.524 56.4494 47.019 55.9842 48.5283C55.8053 49.1097 55.5601 49.7321 56.1455 50.3479C55.1873 50.2668 54.5106 50.788 53.7332 50.9493C52.8878 51.125 52.0722 51.4553 51.2445 51.7198C51.0972 51.7665 50.9443 51.8095 50.8082 51.8821C50.6311 51.9766 50.5249 52.1331 50.592 52.3498C50.6498 52.535 50.8148 52.5656 50.9695 52.5503C51.1512 52.5322 51.3339 52.4902 51.5101 52.4348C53.1916 51.905 54.8713 51.3723 56.55 50.8338C57.2286 50.6162 57.9035 50.388 58.5774 50.157C58.7638 50.093 58.9372 50.0596 59.0919 50.2219C57.5148 50.8968 55.8537 51.3083 54.2309 51.8381C51.6322 52.6868 49.0204 53.4945 46.4133 54.3146C42.2048 55.6387 37.9945 56.9552 33.786 58.2812C28.156 60.0559 22.528 61.8373 16.898 63.613C12.8666 64.8856 8.83803 66.1696 4.79639 67.4059C4.22035 67.5825 3.90343 67.8699 3.68811 68.416C2.93217 70.332 2.14547 72.2356 1.37088 74.143C1.28792 74.3483 1.21988 74.5621 1.11548 74.7559C0.962616 75.0385 0.71281 75.1645 0.408009 75.0519C0.11253 74.9421 -0.0272872 74.6824 0.00440465 74.3712C0.0267753 74.1554 0.107869 73.9416 0.190827 73.7382C1.04651 71.6246 1.9171 69.5167 2.75973 67.3973C2.97784 66.8493 3.32459 66.5305 3.8764 66.3586C8.12217 65.0402 12.3633 63.7094 16.6035 62.3748C20.578 61.1242 24.5497 59.866 28.5214 58.6067C29.1581 58.4053 29.1674 58.3938 28.9772 57.7514C28.734 56.9294 28.4553 56.1189 28.2176 55.2959C27.9556 54.3909 28.1244 54.0635 28.9931 53.8124C33.621 52.4778 38.2499 51.1489 42.8806 49.8247C43.8043 49.5603 44.1073 49.7398 44.3925 50.682C44.5854 51.3198 44.7532 51.9651 44.9359 52.6057C45.1494 53.357 45.1568 53.3656 45.8932 53.1317C48.175 52.409 50.455 51.6806 52.7358 50.9551C53.3287 50.767 53.9168 50.5541 54.5199 50.4071C55.0577 50.2763 55.329 50.0281 55.4706 49.4276C55.9675 47.3206 56.701 45.2948 57.7385 43.3951C57.8578 43.1755 57.9314 42.9234 58.1635 42.7869L58.1626 42.7907ZM43.823 53.4401C43.6673 52.8816 43.4846 52.3059 43.3504 51.7198C43.2479 51.2711 43.013 51.1517 42.6066 51.2778C42.3689 51.3503 42.1265 51.4038 41.887 51.4715C38.8716 52.3336 35.8562 53.1957 32.8418 54.0616C31.9171 54.327 30.9999 54.6191 30.0706 54.8654C29.6306 54.9819 29.5253 55.2148 29.6642 55.6291C29.845 56.1704 30.0119 56.7175 30.188 57.2607C30.4239 57.9881 30.4267 57.9929 31.1509 57.7666C34.4124 56.7442 37.6738 55.7198 40.9344 54.6936C41.7351 54.4415 42.5329 54.1819 43.3336 53.9317C43.576 53.8563 43.8276 53.8057 43.823 53.441V53.4401Z" fill="#74E2C7"/>
<path d="M28.664 80.3961C28.8784 78.629 29.076 76.9679 29.2839 75.3096C29.6036 72.7549 29.9429 70.2021 30.2449 67.6455C30.3083 67.1081 30.4649 66.793 31.0297 66.6594C32.6004 66.287 32.3589 65.9596 32.8837 67.7105C33.8848 71.0537 34.8859 74.397 35.886 77.7412C36.1582 78.6519 36.4211 79.5646 36.6998 80.4734C36.8144 80.8467 36.7492 81.0968 36.3391 81.177C36.2785 81.1885 36.2188 81.2085 36.1601 81.2295C35.1851 81.578 35.1739 81.5818 34.884 80.5851C33.8056 76.8801 32.6004 73.2132 31.5284 69.4699C31.4874 69.8747 31.4529 70.2814 31.4045 70.6852C30.9645 74.3769 30.5236 78.0686 30.0809 81.7603C30.0436 82.0754 29.969 82.3885 29.9597 82.7035C29.9504 83.0443 29.805 83.2248 29.4955 83.3193C29.186 83.4138 28.9511 83.3269 28.7498 83.0854C28.266 82.5059 27.7832 81.9264 27.2957 81.3517C25.1994 78.8801 23.1021 76.4104 21.0021 73.9416C20.8641 73.7793 20.7635 73.5635 20.482 73.512C20.2611 73.8165 20.4866 74.1106 20.5631 74.3693C21.5147 77.5941 22.4823 80.8133 23.4591 84.0305C23.8404 85.2878 23.804 85.0663 22.6426 85.4768C22.2465 85.6162 22.088 85.4654 21.9808 85.0816C21.7329 84.1966 21.443 83.3231 21.1811 82.4419C20.1678 79.0405 19.1574 75.639 18.1498 72.2365C17.7406 70.8532 17.7621 70.9019 19.0987 70.4026C19.7903 70.1439 20.1557 70.3415 20.5948 70.8752C23.1767 74.0094 25.7931 77.1139 28.4003 80.2262C28.4385 80.272 28.5028 80.2939 28.6659 80.3961H28.664Z" fill="#74E2C7"/>
<path d="M19.2749 94.3037C18.9319 94.2894 18.6597 94.2455 18.5693 93.8951C18.4611 93.4731 18.6616 93.2049 19.0223 93.0808C19.6981 92.8488 20.3841 92.6474 21.0683 92.4411C25.2367 91.1896 29.4051 89.939 33.5744 88.6912C39.0813 87.0425 44.5901 85.3986 50.097 83.7489C58.9651 81.093 67.8332 78.4352 76.7014 75.7793C76.9689 75.6991 77.2401 75.6266 77.5142 75.575C77.8544 75.5111 78.1592 75.6037 78.2515 75.975C78.3493 76.3674 78.1815 76.6576 77.7873 76.7789C76.6883 77.1159 75.5912 77.4548 74.4904 77.7841C68.9275 79.45 63.3638 81.1121 57.8 82.7761C51.8168 84.5651 45.8326 86.3513 39.8513 88.1442C33.2752 90.1156 26.702 92.0946 20.1268 94.0698C19.8295 94.1596 19.5275 94.234 19.2749 94.3028V94.3037Z" fill="#74E2C7"/>
<path d="M99.484 75.5617C100.177 75.7583 100.867 75.9445 101.551 76.1488C106.462 77.6171 111.372 79.0872 116.281 80.5622C121.133 82.02 125.983 83.4902 130.836 84.946C136.7 86.7055 142.567 88.4554 148.434 90.2082C151.441 91.1065 154.45 92.0001 157.457 92.9003C157.693 92.971 157.938 93.0483 158.146 93.1772C158.399 93.3328 158.557 93.5791 158.438 93.9037C158.325 94.213 158.084 94.3524 157.775 94.297C157.47 94.2426 157.172 94.1471 156.874 94.0574C149.292 91.7796 141.698 89.5466 134.13 87.2239C128.369 85.4558 122.581 83.7852 116.807 82.062C111.184 80.3837 105.563 78.6939 99.9417 77.008C99.704 76.9364 99.4673 76.8619 99.2305 76.7865C98.8502 76.6662 98.6526 76.4285 98.7561 76.0018C98.8539 75.6017 99.1634 75.576 99.4831 75.5617H99.484Z" fill="#74E2C7"/>
<path d="M37.0764 69.89C37.0847 66.1897 39.2472 63.53 42.8144 62.7538C45.9128 62.0798 48.6504 63.3467 50.2024 66.204C51.2389 68.1114 51.7422 70.1563 51.5176 72.3444C51.1932 75.5101 49.0773 77.6199 46.1924 78.3445C42.4891 79.2744 39.3321 77.5827 37.8826 73.8977C37.3709 72.5965 37.0223 71.2408 37.0764 69.89ZM38.9266 69.804C38.9135 72.4723 40.157 74.9965 42.0986 76.2461C44.7076 77.9245 48.6429 76.3483 49.5695 73.3487C50.2667 71.089 49.0978 66.9028 47.1804 65.3391C46.417 64.7166 45.5604 64.2813 44.5584 64.2488C41.4778 64.1515 38.8483 66.3004 38.9266 69.804Z" fill="#74E2C7"/>
<path d="M123.278 75.7153C120.869 75.6953 119.36 75.1865 118.001 74.2203C116.044 72.8284 115.281 70.8131 115.299 68.4694C115.316 66.2861 115.981 64.2794 117.279 62.539C119.334 59.7848 122.277 59.1003 125.523 60.3146C129.089 61.6483 130.481 65.1071 129.69 68.8207C129.391 70.2251 128.877 71.5549 128.05 72.732C126.694 74.6585 124.885 75.7153 123.278 75.7173V75.7153ZM128.061 67.0097C128.084 64.3844 127.018 62.7032 124.905 61.8478C123.173 61.1471 121.471 61.2216 119.981 62.4369C117.633 64.3538 116.819 66.94 117.304 69.9043C117.679 72.1936 119.183 73.4681 121.364 73.9406C123.398 74.3817 125.263 73.6189 126.469 71.8384C127.507 70.3043 127.961 68.5754 128.061 67.0097Z" fill="#74E2C7"/>
<path d="M115.037 57.6034C114.953 57.928 114.876 58.2688 114.776 58.601C113.493 62.8798 112.205 67.1577 110.919 71.4356C110.788 71.8722 110.515 72.0297 110.1 71.9081C110.07 71.8995 110.041 71.889 110.011 71.8795C109.041 71.5759 109.049 71.5788 109.341 70.6165C109.856 68.92 110.365 67.2217 110.865 65.5214C111.036 64.9429 110.957 64.8035 110.393 64.6221C108.415 63.9863 106.434 63.3562 104.454 62.7271C104.366 62.6994 104.259 62.7185 104.181 62.6774C103.721 62.4407 103.531 62.6287 103.396 63.0965C102.897 64.834 102.365 66.561 101.846 68.2918C101.8 68.4436 101.759 68.5973 101.719 68.751C101.643 69.0432 101.492 69.1491 101.174 69.0957C99.9846 68.8961 99.8979 68.7692 100.268 67.5119C101.503 63.319 102.742 59.128 103.98 54.936C104.042 54.7231 104.11 54.5122 104.17 54.2983C104.207 54.1656 104.286 54.0759 104.409 54.031C104.544 53.9823 105.735 54.3327 105.815 54.4425C105.973 54.6601 105.844 54.8749 105.785 55.0764C105.397 56.4167 104.998 57.7542 104.601 59.0917C104.493 59.4564 104.371 59.8182 104.273 60.1858C104.091 60.8703 104.124 60.9514 104.757 61.1538C106.178 61.6073 107.604 62.0455 109.028 62.4884C109.621 62.6727 110.214 62.855 110.808 63.0307C111.473 63.2264 111.536 63.2025 111.735 62.5438C112.227 60.9056 112.705 59.2626 113.188 57.6215C113.233 57.4697 113.276 57.317 113.315 57.1633C113.359 56.9857 113.487 56.8559 113.644 56.8931C114.063 56.9924 114.476 57.127 114.884 57.2702C115.003 57.3122 115.043 57.4564 115.035 57.6053L115.037 57.6034Z" fill="#74E2C7"/>
<path d="M137.082 78.6786C138.4 78.671 139.292 77.9541 139.919 76.84C140.228 76.291 140.457 75.701 140.637 75.0891C141.435 72.3855 142.239 69.6838 143.059 66.9878C143.143 66.7109 143.114 66.2279 143.516 66.2565C143.964 66.289 144.45 66.3844 144.827 66.6832C145.039 66.8513 144.873 67.1033 144.814 67.3038C144.368 68.8236 143.911 70.3396 143.456 71.8566C143.056 73.1922 142.664 74.5297 142.249 75.8605C141.956 76.8027 141.551 77.6982 140.949 78.4772C139.599 80.2243 137.804 80.6157 135.771 80.1717C134.951 79.9932 134.165 79.7001 133.429 79.2705C131.738 78.2863 131.052 76.754 131.105 74.8256C131.127 74.0285 131.303 73.2475 131.524 72.4876C132.334 69.7229 133.164 66.9639 133.989 64.204C134.043 64.0216 134.135 63.8507 134.178 63.6665C134.247 63.3744 134.423 63.3218 134.664 63.4106C136.124 63.95 136.037 63.5529 135.604 64.9906C134.856 67.4785 134.119 69.9702 133.388 72.4628C133.129 73.3459 132.915 74.2356 132.963 75.175C133.033 76.5373 133.635 77.5311 134.841 78.1173C135.547 78.461 136.286 78.6949 137.082 78.6786Z" fill="#74E2C7"/>
<path d="M55.9432 67.4842C55.7727 67.7696 55.9609 68.0264 56.0364 68.2861C56.5724 70.1124 57.1205 71.9339 57.6546 73.7611C57.8447 74.4122 57.8308 74.417 57.2193 74.6347C57.1018 74.6767 56.9844 74.7177 56.8651 74.7521C56.18 74.9449 56.1688 74.944 55.9563 74.2366C54.6206 69.7754 53.2876 65.3123 51.9547 60.8502C51.7767 60.2545 51.7925 60.2239 52.3378 60.0139C52.4534 59.9691 52.569 59.9204 52.6874 59.8841C53.4461 59.6521 53.4797 59.6664 53.7174 60.475C54.2356 62.2373 54.7436 64.0035 55.2619 65.7658C55.3122 65.9376 55.3178 66.1419 55.5145 66.2574C55.8146 66.1944 55.8127 65.8928 55.9031 65.6846C56.9191 63.3314 57.9407 60.98 58.9185 58.6096C59.1609 58.0215 59.4713 57.6435 60.107 57.5814C60.464 57.5461 60.7744 57.2358 61.1463 57.3389C61.2423 57.5471 61.1603 57.6817 61.095 57.8258C59.9504 60.3633 58.8048 62.8999 57.6667 65.4412C57.3172 66.2221 57.3256 66.2317 58.0666 66.6995C60.5479 68.2661 63.031 69.8298 65.5142 71.3945C65.6707 71.4929 65.86 71.5492 65.9578 71.8031C65.3678 72.2069 64.6613 72.2881 63.9967 72.4714C63.676 72.5602 63.415 72.2862 63.1606 72.1182C60.8927 70.6222 58.6296 69.1176 56.3692 67.6093C56.235 67.5195 56.1213 67.4298 55.9423 67.4842H55.9432Z" fill="#74E2C7"/>
<path d="M32.7933 47.9498C29.2718 46.0051 27.0841 43.1316 26.4764 39.0685C26.0383 36.1453 26.2667 33.2316 26.5463 30.3161C26.7131 28.5757 26.8371 26.8344 26.6292 25.0855C26.4605 23.6659 25.9283 22.3943 25.1668 21.2133C24.6578 20.4248 24.1424 19.64 23.5216 18.6892C25.4772 19.5026 26.9434 20.5861 27.8 22.4191C28.6808 24.3045 28.8961 26.3256 28.8989 28.3676C28.9017 30.8154 28.7927 33.2641 28.7489 35.7128C28.7134 37.6556 28.8439 39.5802 29.241 41.4934C29.7658 44.0213 30.9664 46.1311 32.7952 47.9488L32.7933 47.9498Z" fill="#74E2C7"/>
<path d="M68.5314 71.0967C68.1315 71.1826 68.0467 70.9936 67.9787 70.7606C67.7671 70.0303 67.5471 69.3028 67.3299 68.5744C66.1983 64.7853 65.0639 60.9963 63.9361 57.2062C63.7105 56.4473 63.7161 56.432 64.4329 56.2057C66.3587 55.5976 68.2863 54.9962 70.2157 54.4043C70.4963 54.3184 70.8514 54.0673 71.0705 54.4024C71.2867 54.7355 71.3995 55.1613 71.3837 55.5747C71.3734 55.8516 71.0807 55.8535 70.8822 55.9165C69.5819 56.3318 68.2797 56.7423 66.9776 57.1528C66.7706 57.2177 66.5656 57.2941 66.3549 57.3437C66.0063 57.4249 65.915 57.6043 66.0259 57.9633C66.4258 59.2645 66.8051 60.5724 67.1836 61.8803C67.3215 62.3586 67.6217 62.3128 67.9852 62.1963C69.2566 61.7877 70.5308 61.3877 71.8068 60.9953C72.0594 60.918 72.3829 60.6745 72.573 60.98C72.7995 61.3447 72.9477 61.7858 72.8965 62.2364C72.8704 62.4626 72.6206 62.4397 72.4472 62.4941C71.1469 62.9046 69.8466 63.3161 68.5519 63.7448C67.837 63.9815 67.8342 63.9987 68.0551 64.7558C68.4112 65.972 68.7728 67.1873 69.1429 68.3988C69.3545 69.0909 69.3666 69.0966 70.0116 68.9C71.5253 68.437 73.0344 67.9558 74.551 67.5023C74.7933 67.4298 75.1084 67.1462 75.3078 67.4737C75.5148 67.8145 75.6816 68.2174 75.6602 68.6374C75.6462 68.9009 75.3787 68.9429 75.1727 69.0078C73.7531 69.4604 72.3335 69.9129 70.9129 70.3625C70.2623 70.5687 69.6108 70.7692 68.9583 70.9706C68.7803 71.026 68.6013 71.0757 68.5305 71.0967H68.5314Z" fill="#74E2C7"/>
<path d="M161.153 73.4585C160.758 73.386 160.692 73.5683 160.636 73.7554C160.232 75.091 159.828 76.4266 159.426 77.7631C159.298 78.1918 159.557 78.3016 159.893 78.4056C161.201 78.8085 162.501 79.2343 163.803 79.6553C164.053 79.7364 164.448 79.7087 164.398 80.1087C164.349 80.5078 164.299 80.9431 164.016 81.2629C163.864 81.4348 163.664 81.2858 163.493 81.2343C162.275 80.8667 161.057 80.4935 159.84 80.1212C159.692 80.0753 159.544 80.0276 159.398 79.9713C158.983 79.8099 158.766 79.9799 158.65 80.3971C158.437 81.1608 158.201 81.9169 157.974 82.6758C157.82 83.1923 157.66 83.7078 157.513 84.2262C157.308 84.9508 157.308 84.9642 158.044 85.199C159.524 85.6706 161.009 86.1241 162.49 86.5938C162.742 86.673 163.146 86.6377 163.139 87.0062C163.13 87.4377 163.024 87.8893 162.734 88.2387C162.629 88.3657 162.449 88.2988 162.296 88.2502C160.077 87.5504 157.859 86.8411 155.633 86.1652C155.05 85.9885 155.233 85.6162 155.337 85.2659C155.908 83.3518 156.497 81.4443 157.069 79.5312C157.831 76.9812 158.584 74.4285 159.34 71.8766C159.522 71.2599 159.575 71.2179 160.194 71.4108C162.212 72.0399 164.229 72.6757 166.243 73.3172C166.865 73.5148 166.862 73.5273 166.674 74.1755C166.648 74.2671 166.615 74.3559 166.585 74.4466C166.386 75.049 166.381 75.0671 165.734 74.8714C164.516 74.502 163.304 74.1067 162.088 73.7268C161.733 73.616 161.373 73.5196 161.155 73.4576L161.153 73.4585Z" fill="#74E2C7"/>
<path d="M144.351 79.8605C145.289 80.9928 146.385 81.7393 147.668 82.2061C148.261 82.4219 148.87 82.5259 149.495 82.5164C151.123 82.4916 152.11 80.8877 151.451 79.3507C151.184 78.7264 150.748 78.2357 150.283 77.7641C149.515 76.9831 148.74 76.2099 148 75.4013C147.535 74.8915 147.121 74.3263 146.901 73.6504C146.114 71.238 147.609 68.8627 150.11 68.6098C152.067 68.4112 153.848 69.0012 155.51 70.0313C155.848 70.2413 155.992 70.4799 155.839 70.8924C155.686 71.3029 155.586 71.7334 155.473 72.122C155.132 72.2308 155.041 71.9568 154.899 71.826C153.868 70.8828 152.642 70.3749 151.297 70.2155C150.343 70.1019 149.419 70.2718 148.869 71.2322C148.483 71.9062 148.452 72.6155 148.787 73.3316C149.047 73.8872 149.453 74.3253 149.868 74.754C150.525 75.4309 151.19 76.0972 151.845 76.775C152.261 77.2056 152.614 77.6839 152.915 78.2089C153.686 79.555 153.741 80.9059 152.988 82.2777C152.213 83.6926 150.912 84.2004 149.461 84.1594C147.533 84.1059 145.77 83.4291 144.198 82.2424C143.767 81.9159 143.646 81.5703 143.864 81.1073C144.037 80.7398 144.021 80.2997 144.35 79.8615L144.351 79.8605Z" fill="#74E2C7"/>
<path d="M14.7355 74.1125C13.3233 73.7497 12.0324 74.0141 10.7684 74.5277C10.3303 74.7053 9.94911 74.9659 9.60888 75.302C8.44654 76.4504 8.75507 78.2443 10.2353 78.8944C11.2755 79.3507 12.3987 79.4386 13.4921 79.66C14.7141 79.9083 15.9137 80.2052 16.9334 81.0109C18.6634 82.378 18.8452 85.0453 17.282 86.6339C16.184 87.7499 14.7877 88.2711 13.314 88.6005C12.5842 88.7638 11.8348 88.7561 11.09 88.7743C10.5979 88.7867 10.2511 88.6177 10.1635 88.0668C10.0992 87.664 9.85217 87.3031 9.88852 86.8496C10.197 86.6788 10.4832 86.8792 10.7731 86.9232C12.2868 87.1504 13.7503 86.9957 15.1223 86.2797C16.2437 85.6936 16.6417 84.9346 16.5009 83.8386C16.349 82.651 15.5325 82.0859 14.5379 81.81C13.3755 81.4882 12.1769 81.304 10.9949 81.0577C10.294 80.9116 9.60609 80.7207 8.97691 80.3579C6.88339 79.1541 6.43784 76.4056 8.03455 74.5669C8.77651 73.7134 9.70396 73.1473 10.7433 72.7788C11.6232 72.4666 12.5227 72.2241 13.465 72.1936C14.2564 72.1678 14.3291 72.1993 14.5687 73.0146C14.6628 73.3344 14.8809 73.6409 14.7364 74.1125H14.7355Z" fill="#74E2C7"/>
<path d="M36.2207 26.254C37.8845 28.8335 38.6115 31.7032 38.7933 34.7458C38.9629 37.5859 38.317 40.2981 37.5797 42.9989C37.2367 44.2533 36.971 45.5278 36.7921 46.8185C36.67 47.6987 36.7333 48.5827 36.8526 49.6357C36.0809 48.9636 35.7099 48.219 35.4731 47.4247C34.9716 45.7407 34.7843 44.0146 34.9083 42.2485C35.049 40.2456 35.406 38.2809 35.8264 36.3257C36.3689 33.8035 36.7249 31.2679 36.546 28.6731C36.4901 27.8578 36.2831 27.0683 36.2207 26.253V26.254Z" fill="#74E2C7"/>
<path d="M34.3015 47.3598C33.5362 46.745 33.2137 45.8514 32.852 45.038C31.507 42.0127 31.0325 38.8298 31.2199 35.4961C31.369 32.8259 31.9274 30.2254 32.2117 27.5838C32.4055 25.7852 32.3161 23.9771 31.5415 22.2845C31.4762 22.1413 31.4231 21.9923 31.3765 21.8415C31.3616 21.7947 31.3877 21.7336 31.4073 21.5847C33.1037 23.557 34.2875 25.6859 34.363 28.3189C34.404 29.7509 34.2399 31.1686 33.9873 32.5787C33.4663 35.4885 33.0944 38.4165 33.2137 41.3845C33.2827 43.1029 33.5455 44.7927 34.0852 46.4299C34.1803 46.7192 34.226 47.0266 34.3015 47.3588V47.3598Z" fill="#74E2C7"/>
<path d="M88.4516 57.8373C88.3257 58.1552 88.3751 58.4359 88.3761 58.7089C88.3789 60.3624 88.3835 62.0159 88.3807 63.6693C88.3807 63.909 88.4572 64.1868 88.1393 64.3195C87.7329 64.4884 87.4421 64.2927 87.4384 63.7934C87.4281 62.3309 87.4356 60.8674 87.4365 59.4048C87.4365 58.5781 87.4272 57.7514 87.443 56.9246C87.4477 56.6649 87.2976 56.2879 87.6928 56.2077C88.0787 56.1294 88.514 56.0406 88.8188 56.4234C88.9735 56.6182 89.0677 56.8626 89.2 57.0764C90.3298 58.9008 91.4613 60.7242 92.5948 62.5457C92.6414 62.6211 92.6983 62.707 92.8828 62.6631C93.0748 62.5152 92.977 62.2469 92.977 62.0168C92.977 60.2679 92.9704 58.5199 92.9574 56.7709C92.9546 56.4072 93.0105 56.1389 93.4579 56.1723C93.7189 56.1914 93.8643 56.2955 93.8653 56.5743C93.8653 56.7652 93.869 56.9561 93.869 57.147C93.8699 59.2454 93.8783 61.3447 93.8634 63.4431C93.8615 63.7553 94.0489 64.1782 93.5744 64.3386C93.1336 64.4875 92.7029 64.2956 92.4028 63.8326C92.0085 63.2235 91.6114 62.6173 91.2255 62.0035C90.437 60.7471 89.6549 59.4869 88.871 58.2277C88.788 58.095 88.7265 57.9442 88.4525 57.8373H88.4516Z" fill="#74E2C7"/>
<path d="M84.944 56.1714C85.1929 56.1714 85.4408 56.1685 85.6897 56.1723C85.8855 56.1752 86.0672 56.2124 86.098 56.4597C86.1222 56.6544 86.1194 56.916 85.9125 56.9399C85.246 57.0182 85.3607 57.5108 85.3588 57.9404C85.3523 59.5309 85.3541 61.1213 85.3551 62.7128C85.3551 63.0956 85.3085 63.4966 85.8566 63.5605C86.0775 63.5863 86.1194 63.804 86.1082 64.0063C86.0952 64.245 85.9227 64.3405 85.7307 64.3443C85.1407 64.3586 84.5507 64.3577 83.9616 64.3405C83.7649 64.3348 83.6083 64.2211 83.6139 63.9815C83.6176 63.7772 83.6773 63.5643 83.8982 63.5596C84.4584 63.5472 84.4342 63.1548 84.4342 62.7672C84.4342 61.0812 84.4295 59.3953 84.4332 57.7094C84.4332 57.3418 84.4537 56.9962 83.9439 56.9819C83.6577 56.9743 83.6018 56.7451 83.6297 56.5027C83.6624 56.2162 83.873 56.1666 84.107 56.1657C84.3866 56.1647 84.6663 56.1657 84.9459 56.1657V56.1733L84.944 56.1714Z" fill="#74E2C7"/>
<path d="M129.193 52.599C129.064 52.7393 128.927 52.6897 128.772 52.6401C126.058 51.7761 123.344 50.9121 120.627 50.0605C116.314 48.7087 112 47.3655 107.686 46.0175C106.74 45.7216 105.813 45.3645 104.859 45.0896C104.245 44.913 103.923 44.3994 103.868 43.7368C104.752 44.8022 104.748 44.8175 106.257 45.2939C112.671 47.3178 119.092 49.3169 125.499 51.3646C126.734 51.7589 128.019 52.0138 129.193 52.6V52.599Z" fill="#74E2C7"/>
<path d="M86.2173 17.0443C86.9881 17.7412 86.9071 18.6634 86.8325 19.5723C86.812 19.8186 86.688 20.0563 86.6032 20.2959C86.4596 20.7045 86.1819 20.8935 85.7475 20.8773C85.2199 20.8582 84.6914 20.8725 84.1638 20.8725C82.02 20.8725 79.8771 20.8754 77.7332 20.8687C77.4312 20.8677 77.1078 20.9642 76.8365 20.7322C77.4098 20.5689 78.0007 20.61 78.5824 20.609C80.8073 20.6062 83.0313 20.631 85.2563 20.6386C86.3049 20.6424 86.5808 20.3389 86.6703 19.2486C86.7355 18.4572 86.4587 17.7593 86.2164 17.0452L86.2173 17.0443Z" fill="#74E2C7"/>
<path d="M160.135 62.3529C159.722 62.539 159.36 62.2956 158.998 62.1829C155.757 61.1758 152.516 60.1743 149.293 59.1108C148.551 58.8664 147.734 58.7767 147.094 58.244C148.595 58.517 150.005 59.1089 151.457 59.5519C154.16 60.3748 156.851 61.2378 159.546 62.0894C159.75 62.1543 159.939 62.2641 160.136 62.3538L160.135 62.3529Z" fill="#74E2C7"/>
<path d="M84.1228 53.9088C84.4006 54.0797 84.7054 54.0893 85.0186 54.0893C87.4915 54.0854 89.9653 54.0912 92.4382 54.0845C93.1513 54.0826 93.1503 54.0692 93.0609 53.2911C93.0189 52.9245 92.9826 52.558 93.525 52.6019C93.1 52.8806 93.293 53.2406 93.3806 53.6062C93.54 54.2697 93.5073 54.3107 92.8362 54.3117C90.0902 54.3165 87.3433 54.3146 84.5973 54.3079C84.3512 54.3079 83.983 54.4129 84.1228 53.9098V53.9088Z" fill="#74E2C7"/>
<path d="M82.761 41.3759C82.514 41.5669 82.226 41.4953 81.9538 41.4962C80.2844 41.501 78.615 41.4876 76.9456 41.5019C76.431 41.5067 76.0004 41.3635 75.5567 41.0857C74.6638 40.5272 73.7009 40.0881 72.889 39.3912C72.7184 39.2441 72.5451 39.1239 72.5274 38.8756C73.5788 39.5792 74.633 40.2733 75.7413 40.8871C76.2297 41.1573 76.6883 41.291 77.2243 41.289C78.7967 41.2833 80.3701 41.291 81.9426 41.3024C82.2157 41.3043 82.4982 41.2365 82.761 41.375V41.3759Z" fill="#74E2C7"/>
<path d="M101.983 21.2162C101.85 20.715 101.442 20.8763 101.133 20.8744C98.8353 20.8649 96.5376 20.8725 94.239 20.8744C93.773 20.8744 93.3079 20.8696 92.8418 20.8677C92.6228 20.8668 92.3981 20.8821 92.2853 20.6253C93.2995 20.6405 94.3136 20.6758 95.3278 20.6653C97.1761 20.6453 99.0236 20.5937 100.872 20.567C101.24 20.5613 101.614 20.5766 101.977 20.6329C102.337 20.6892 102.334 20.819 101.983 21.2152V21.2162Z" fill="#74E2C7"/>
<path d="M66.0128 37.0484C65.8702 37.3911 65.5328 37.289 65.2839 37.3644C63.4644 37.9172 61.8416 38.7659 60.5022 40.2074C59.8413 40.9186 59.1236 41.5611 58.6314 42.4175C58.5485 42.5616 58.4012 42.6227 58.24 42.639C59.8581 39.7644 62.1986 37.8627 65.3743 37.0923C65.5785 37.0427 65.7994 37.0618 66.0119 37.0484H66.0128Z" fill="#74E2C7"/>
<path d="M146.157 57.948C145.745 58.1552 145.382 57.9041 145.021 57.7915C142.395 56.9743 139.775 56.1361 137.155 55.3007C136.837 55.1995 136.479 55.168 136.282 54.8282C137.821 55.1604 139.293 55.7275 140.796 56.1828C142.423 56.6754 144.039 57.2015 145.661 57.7113C145.837 57.7666 146.022 57.802 146.157 57.9471V57.948Z" fill="#74E2C7"/>
<path d="M91.1472 41.3855C90.8061 41.5487 90.6756 41.3024 90.6336 41.0504C90.3279 39.2212 90.1955 37.3883 90.8928 35.6183C91.0801 35.1439 91.0783 34.845 90.6131 34.6159C90.327 34.4746 90.1629 34.2073 90.2552 33.9152C90.436 33.3386 90.3214 32.7171 90.5516 32.1557C90.7418 32.6207 90.6551 33.0894 90.533 33.5429C90.4099 33.9982 90.4826 34.2932 90.9142 34.5615C91.4874 34.9166 91.4725 34.973 91.1659 35.6336C90.3521 37.3892 90.5908 39.2041 90.8695 41.0198C90.89 41.1535 91.0522 41.2642 91.1482 41.3864L91.1472 41.3855Z" fill="#74E2C7"/>
<path d="M171.275 65.8785C171.06 65.9281 170.85 65.9214 170.636 65.8527C167.784 64.9381 164.929 64.0264 162.075 63.1166C161.899 63.0603 161.708 63.0364 161.634 62.8226C162.946 63.0679 164.183 63.5758 165.453 63.9634C167.234 64.5075 169.007 65.0803 170.781 65.6436C170.955 65.699 171.151 65.7085 171.274 65.8785H171.275Z" fill="#74E2C7"/>
<path d="M102.606 41.6232C100.227 41.3587 97.8398 41.5669 95.4573 41.4934C94.9698 41.4781 94.4665 41.6184 93.9967 41.375C95.3855 41.2031 96.779 41.3282 98.1698 41.2986C99.2855 41.2757 100.403 41.27 101.519 41.2852C101.901 41.29 102.341 41.185 102.606 41.6241V41.6232Z" fill="#74E2C7"/>
<path d="M176.061 72.0437C175.478 71.5482 175.416 70.7721 175.104 70.1325C174.691 69.2828 174.391 68.3759 174.044 67.4937C173.871 67.0556 173.586 66.7806 173.126 66.6298C172.7 66.4894 172.203 66.4742 171.887 66.0684C171.918 66.0656 171.95 66.0541 171.979 66.0617C174.281 66.6594 173.899 66.5334 174.631 68.3615C175.12 69.5835 175.717 70.7625 176.06 72.0446L176.061 72.0437Z" fill="#74E2C7"/>
<path d="M91.3551 26.8841C91.4352 26.6139 91.6487 26.5967 91.8724 26.5967C92.427 26.5967 92.9816 26.5948 93.5362 26.5948C95.0444 26.5948 96.5386 26.4783 98.0048 26.084C98.1772 26.0373 98.3692 26.0669 98.5519 26.0611C97.9889 26.4182 97.3495 26.5327 96.7138 26.6206C94.9363 26.8669 93.1457 26.9003 91.3551 26.8841Z" fill="#74E2C7"/>
<path d="M67.4958 47.5717C67.5257 47.4075 67.5965 47.2815 67.7699 47.2376C69.4328 46.8185 71.0611 46.2848 72.6858 45.733C72.8247 45.6863 72.9878 45.7158 73.1407 45.7092C72.944 46.0567 72.5702 46.05 72.2608 46.1426C70.6725 46.6171 69.1289 47.249 67.4968 47.5708L67.4958 47.5717Z" fill="#74E2C7"/>
<path d="M93.3507 15.1216C93.0795 14.5507 93.2668 13.9435 93.2258 13.3545C93.1718 12.5831 93.1186 12.5058 92.3515 12.4762C91.9824 12.4619 91.6124 12.4676 91.2423 12.4657C91.0466 12.4647 90.8751 12.4208 90.7949 12.2089C91.5303 12.059 92.2518 12.2671 92.9798 12.2967C93.2855 12.3091 93.4039 12.5192 93.4123 12.7979C93.4356 13.5731 93.567 14.3531 93.3507 15.1216Z" fill="#74E2C7"/>
<path d="M81.8746 26.7113C82.4991 26.4688 83.1478 26.6292 83.7854 26.6005C84.368 26.5747 84.9533 26.5938 85.5378 26.5977C85.7811 26.5996 86.0458 26.5614 86.1446 26.886C84.7185 26.9089 83.2905 26.9557 81.8746 26.7113Z" fill="#74E2C7"/>
<path d="M59.4759 50.1255C59.8096 49.777 60.2636 49.6577 60.6886 49.5173C61.6832 49.1889 62.6927 48.9064 63.6993 48.6161C63.7674 48.597 63.8615 48.6734 63.9426 48.7049C62.4885 49.2949 60.9776 49.6968 59.4759 50.1255Z" fill="#74E2C7"/>
<path d="M84.1303 13.0509C84.4118 13.513 84.2515 14.0247 84.2654 14.5116C84.2776 14.9316 84.3941 15.2256 84.7856 15.4042C85.1491 15.5693 85.5098 15.7584 85.5974 16.2195C85.1733 16.0362 84.8601 15.66 84.4062 15.5235C84.0818 15.4261 84.0306 15.1063 84.0194 14.8314C83.9951 14.2366 83.9206 13.6323 84.1303 13.0509Z" fill="#74E2C7"/>
<path d="M90.4752 31.7567C89.9308 30.6139 89.6689 29.4072 89.6885 28.1356C89.6922 27.9227 89.791 27.7776 90.0017 27.7251C89.8702 28.7543 90.0371 29.7528 90.3121 30.7371C90.4062 31.0731 90.5348 31.3968 90.4752 31.7567Z" fill="#74E2C7"/>
<path d="M72.1676 38.6198C71.9401 38.6332 71.7397 38.5367 71.5673 38.4117C70.6995 37.7816 69.7375 37.4131 68.688 37.2699C68.5556 37.2518 68.4764 37.1563 68.4251 37.036C69.566 36.9615 70.5075 37.5305 71.4536 38.0527C71.709 38.194 72.0305 38.3009 72.1685 38.6198H72.1676Z" fill="#74E2C7"/>
<path d="M135.901 54.7107C135.695 54.9217 135.497 54.7413 135.31 54.6821C134.19 54.326 132.999 54.1733 131.994 53.4859C133.337 53.757 134.627 54.2095 135.902 54.7117L135.901 54.7107Z" fill="#74E2C7"/>
<path d="M173.106 67.8317C173.184 67.8775 173.301 67.9024 173.335 67.9711C173.909 69.1186 174.471 70.2728 174.657 71.5702C174.04 70.3673 173.572 69.0995 173.106 67.8317Z" fill="#74E2C7"/>
<path d="M76.8002 46.0844C76.8607 46.0891 76.9418 46.0691 76.9801 46.1025C77.8106 46.8204 78.7035 47.4658 79.4324 48.303C78.3587 47.8075 77.5207 47.0199 76.8002 46.0844Z" fill="#74E2C7"/>
<path d="M95.4079 49.904C95.297 49.8572 95.1534 49.84 95.0807 49.7579C94.4786 49.0763 93.8177 48.9741 93.0758 49.5097C93.5772 48.661 93.7683 48.5884 94.5606 49.02C94.926 49.2185 95.3212 49.4133 95.4079 49.904Z" fill="#74E2C7"/>
<path d="M176.071 74.8953C176.756 74.6862 176.795 74.5936 176.656 73.9588C176.546 73.4528 176.136 73.0385 176.237 72.4733C176.561 72.9716 176.767 73.5301 176.942 74.0915C177.134 74.711 176.84 75.0872 176.239 75.0853C176.155 75.0853 176.071 75.0108 176.071 74.8953Z" fill="#74E2C7"/>
<path d="M86.7048 12.2079C86.5239 12.5946 86.1753 12.4495 85.8883 12.4619C85.3075 12.4857 84.7185 12.4122 84.1638 12.6624C84.1284 12.3626 84.3382 12.27 84.5507 12.2681C85.2693 12.2604 85.9833 12.0762 86.7048 12.2089V12.2079Z" fill="#74E2C7"/>
<path d="M64.3229 48.5827C65.2 47.9297 66.2058 47.7092 67.2637 47.6596C66.3195 48.0863 65.3296 48.3612 64.3229 48.5827Z" fill="#74E2C7"/>
<path d="M77.0873 24.4897C77.7472 24.8267 78.1974 25.4062 78.6877 25.9399C77.9578 25.684 77.4219 25.2038 77.0873 24.4897Z" fill="#74E2C7"/>
<path d="M103.779 43.5927C103.211 43.0437 102.78 42.4089 102.599 41.6165C103.142 42.1817 103.471 42.8805 103.779 43.5927Z" fill="#74E2C7"/>
<path d="M100.105 25.0215C100.439 24.3742 100.372 23.5981 100.741 22.9623C100.801 23.7365 100.789 24.4878 100.105 25.0215Z" fill="#74E2C7"/>
<path d="M93.965 52.4596C94.432 51.9307 95.1656 51.9708 95.7071 51.6004C95.3296 52.3203 94.6119 52.3145 93.965 52.4596Z" fill="#74E2C7"/>
<path d="M79.8118 26.3685C80.6843 26.3189 81.0441 26.3829 81.484 26.6693C80.9061 26.6893 80.3347 26.6693 79.8118 26.3685Z" fill="#74E2C7"/>
<path d="M73.6757 44.9951C73.7177 44.3831 73.9926 43.9239 74.5258 43.6337C74.2751 44.1091 74.0402 44.5941 73.6757 44.9951Z" fill="#74E2C7"/>
<path d="M100.8 22.5651C100.705 21.6888 100.864 21.4262 101.56 21.305C101.069 21.5751 100.997 22.1098 100.8 22.5651Z" fill="#74E2C7"/>
<path d="M131.056 53.1794C130.48 53.3026 130.014 53.0544 129.571 52.725C130.103 52.7489 130.591 52.9226 131.056 53.1794Z" fill="#74E2C7"/>
<path d="M90.9394 17.9885C90.7324 17.3861 91.0027 16.9832 91.4688 16.6615C91.2926 17.1035 91.1165 17.5464 90.9394 17.9885Z" fill="#74E2C7"/>
<path d="M91.9144 16.1965C92.2229 15.661 92.715 15.5283 93.2752 15.5416C92.9136 15.9617 92.318 15.8691 91.9144 16.1965Z" fill="#74E2C7"/>
<path d="M68.0318 36.9892C67.6114 37.1601 67.1929 37.1735 66.7753 36.9778C67.1947 36.8498 67.6142 36.8231 68.0318 36.9892Z" fill="#74E2C7"/>
<path d="M75.9324 45.103C76.4077 45.2614 76.7508 45.5421 76.8048 46.0901C76.4161 45.8514 76.1374 45.5116 75.9324 45.103Z" fill="#74E2C7"/>
<path d="M75.8634 21.2668C76.4832 21.5627 76.6091 21.7814 76.5019 22.3752C76.2894 22.0057 76.0769 21.6362 75.8634 21.2668Z" fill="#74E2C7"/>
<path d="M87.0301 33.2727C87.3712 33.8092 87.3582 34.0298 86.9602 34.4479C87.1559 34.067 86.9154 33.6584 87.0301 33.2727Z" fill="#74E2C7"/>
<path d="M83.1124 51.6262C83.5953 51.6969 84.0539 51.8095 84.2897 52.3193C83.8618 52.1522 83.4135 52.0186 83.1124 51.6262Z" fill="#74E2C7"/>
<path d="M175.548 73.7506C175.956 73.9731 176.012 74.3502 175.973 74.7683C175.682 74.4943 175.62 74.1211 175.548 73.7506Z" fill="#74E2C7"/>
<path d="M86.7188 26.9108C87.251 26.9156 87.3284 27.0005 87.4057 27.664C87.1764 27.4129 86.9481 27.1619 86.7188 26.9108Z" fill="#74E2C7"/>
<path d="M75.8951 20.8066C75.8867 20.9613 75.8792 21.1169 75.8708 21.2716C75.6583 21.2506 75.4439 21.1398 75.4654 20.9336C75.4822 20.7761 75.7105 20.7188 75.8951 20.8066Z" fill="#74E2C7"/>
<path d="M92.9732 49.7465C93.0618 50.1312 92.9462 50.4357 92.6274 50.6591C92.6311 50.3107 92.7411 50.0042 92.9732 49.7465Z" fill="#74E2C7"/>
<path d="M86.7477 40.9301C86.8987 41.0848 86.9285 41.2623 86.7654 41.4103C86.6433 41.521 86.4867 41.5019 86.3571 41.3826C86.4876 41.2318 86.6181 41.0809 86.7477 40.9301Z" fill="#74E2C7"/>
<path d="M80.2089 49.9756C80.6013 49.8591 80.9052 49.9718 81.1121 50.3384C80.7775 50.304 80.4773 50.1799 80.2089 49.9756Z" fill="#74E2C7"/>
<path d="M98.8139 25.9695C98.9276 25.5485 99.2547 25.4836 99.6117 25.4702C99.4235 25.7661 99.1289 25.8864 98.8139 25.9695Z" fill="#74E2C7"/>
<path d="M175.002 72.4132C175.352 72.6222 175.458 72.9344 175.37 73.3287C175.164 73.0585 175.028 72.7588 175.002 72.4132Z" fill="#74E2C7"/>
<path d="M87.1298 31.5772C87.3209 31.8541 87.3554 32.1118 87.0459 32.3295C86.9704 32.067 87.0142 31.8178 87.1298 31.5772Z" fill="#74E2C7"/>
<path d="M89.1283 12.1965C88.8803 12.5784 88.6277 12.5726 88.3714 12.2051C88.6221 12.0972 88.8747 12.1287 89.1283 12.1965Z" fill="#74E2C7"/>
<path d="M86.4801 34.7639C86.4811 35.0589 86.482 35.3539 86.4829 35.6489C86.2126 35.3548 86.0467 35.0608 86.4801 34.7639Z" fill="#74E2C7"/>
<path d="M86.9238 39.3998C87.1429 39.6718 87.1401 39.9267 86.866 40.1597C86.7794 39.8981 86.8194 39.6461 86.9238 39.3998Z" fill="#74E2C7"/>
<path d="M95.6969 50.8501C95.4126 50.7126 95.3995 50.5216 95.5915 50.2906C95.7053 50.4615 95.7752 50.641 95.6969 50.8501Z" fill="#74E2C7"/>
<path d="M91.0848 20.3207C90.7809 20.21 90.725 20.0181 90.9077 19.7498C91.0475 19.914 91.0559 20.1212 91.0848 20.3207Z" fill="#74E2C7"/>
<path d="M91.7167 20.5431C91.4557 20.7551 91.2647 20.7074 91.1491 20.3818C91.3495 20.3952 91.549 20.4104 91.7167 20.5431Z" fill="#74E2C7"/>
<path d="M79.8333 49.3264C80.0243 49.4801 79.9815 49.6987 79.9871 49.9049C79.5163 49.8295 79.7345 49.5613 79.8333 49.3264Z" fill="#74E2C7"/>
<path d="M76.5895 22.7713C76.9092 22.9566 76.816 23.2315 76.7396 23.5026C76.5765 23.283 76.5177 23.0415 76.5895 22.7713Z" fill="#74E2C7"/>
<path d="M84.3279 52.768C84.5246 53.0219 84.5097 53.2186 84.1825 53.3312C84.1732 53.1279 84.217 52.9389 84.3279 52.768Z" fill="#74E2C7"/>
<path d="M86.866 36.7095C87.1233 36.8718 87.1308 37.0618 86.9248 37.2747C86.8176 37.0961 86.8204 36.9052 86.866 36.7095Z" fill="#74E2C7"/>
<path d="M75.1615 44.155C75.4113 44.1779 75.5185 44.323 75.5017 44.5731C75.3162 44.4958 75.1932 44.364 75.1615 44.155Z" fill="#74E2C7"/>
<path d="M86.6013 35.9467C86.8092 35.9992 86.9574 36.0785 86.7579 36.3133C86.6405 36.2207 86.5612 36.11 86.6013 35.9467Z" fill="#74E2C7"/>
<path d="M86.9061 34.4909C86.853 34.7333 86.6992 34.8126 86.4718 34.7725C86.5379 34.551 86.7206 34.5185 86.9061 34.4909Z" fill="#74E2C7"/>
<path d="M90.5954 27.0922C90.6523 26.8783 90.7259 26.7055 90.9692 26.9232C90.8443 26.9795 90.7203 27.0359 90.5954 27.0922Z" fill="#74E2C7"/>
<path d="M79.6086 48.3641C79.8258 48.3813 80.0514 48.3908 79.8761 48.7183C79.7867 48.5999 79.6981 48.4825 79.6086 48.3641Z" fill="#74E2C7"/>
<path d="M78.9477 26.063C79.1528 26.0134 79.3364 26.021 79.4352 26.2559C79.2348 26.2931 79.0736 26.2263 78.9477 26.063Z" fill="#74E2C7"/>
<path d="M99.7441 25.3747C99.7618 25.1666 99.8821 25.0692 100.077 25.0501C100.035 25.2315 99.9398 25.3575 99.7441 25.3747Z" fill="#74E2C7"/>
<path d="M82.5634 51.2405C82.7862 51.2186 82.9418 51.2921 82.9745 51.5422C82.789 51.5107 82.6268 51.4458 82.5634 51.2405Z" fill="#74E2C7"/>
<path d="M82.0004 50.8606C82.2157 50.8338 82.3742 50.8968 82.4161 51.1403C82.2307 51.1193 82.075 51.0534 82.0004 50.8606Z" fill="#74E2C7"/>
<path d="M81.4206 50.4863C81.6397 50.4548 81.8093 50.5064 81.8569 50.7613C81.6676 50.7422 81.5027 50.683 81.4206 50.4863Z" fill="#74E2C7"/>
<path d="M59.4619 45.1096C59.0667 46.1769 58.6706 47.2433 58.2763 48.3106C58.2111 48.4882 58.1384 48.6658 58.0973 48.8491C58.0433 49.0944 58.1644 49.2033 58.4021 49.1708C58.706 49.1297 58.967 48.8873 59.297 48.9694C59.022 49.5527 58.4357 49.4944 57.9566 49.6042C57.7385 49.6548 57.5772 49.3522 57.6658 49.1231C58.1719 47.8161 58.4898 46.4299 59.2131 45.2146C59.2504 45.1516 59.3771 45.143 59.4619 45.1096Z" fill="#74E2C7"/>
<path d="M64.322 47.3894C65.709 46.7879 67.1761 46.4385 68.605 45.9679C69.0375 45.8256 69.4523 45.5927 69.9268 45.5984C69.8736 45.8562 69.6593 45.9412 69.4598 46.0042C67.8528 46.5178 66.2431 47.0199 64.6333 47.524C64.5 47.566 64.3984 47.5001 64.322 47.3894Z" fill="#74E2C7"/>
<path d="M61.1659 48.3851C62.0551 47.9479 63.0133 47.7407 63.9603 47.4953C63.3983 48.0701 62.6237 48.1273 61.9209 48.3412C61.6972 48.409 61.4287 48.6639 61.1659 48.3851Z" fill="#74E2C7"/>
<path d="M81.1037 46.6543C81.3675 46.7383 81.6248 46.7507 81.9053 46.7001C82.2698 46.6333 82.5653 46.7622 82.6137 47.2061C82.2521 47.1765 81.9202 46.9789 81.5427 47.0171C81.3013 47.0419 81.1326 46.9245 81.1037 46.6543Z" fill="#74E2C7"/>
<path d="M85.4008 50.8281C85.8342 50.978 86.139 51.5403 86.7076 51.2548C86.2098 51.8 85.7615 51.6539 85.4008 50.8281Z" fill="#74E2C7"/>
<path d="M59.5924 48.9044C59.8684 48.6075 60.2468 48.6161 60.601 48.5512C60.5255 49.272 60.5274 49.2691 59.9411 49.0028C59.832 48.9531 59.709 48.9359 59.5924 48.9044Z" fill="#74E2C7"/>
<path d="M78.5022 42.5187C78.2887 42.6628 77.8059 42.4795 77.9196 43.0218C77.5859 42.9635 77.4713 42.7392 77.6782 42.49C77.9196 42.1988 78.2412 42.0967 78.5013 42.5187H78.5022Z" fill="#74E2C7"/>
<path d="M60.1899 43.7769C60.0837 44.1387 59.9373 44.4776 59.6446 44.7278C59.5347 44.1053 59.64 43.922 60.1899 43.7769Z" fill="#74E2C7"/>
<path d="M60.9804 42.637C60.8163 43.0351 60.6038 43.397 60.2542 43.6576C60.2981 43.1697 60.3875 42.7153 60.9804 42.637Z" fill="#74E2C7"/>
<path d="M65.8171 39.3778C65.5486 39.6146 65.2187 39.6613 64.8831 39.6928C65.105 39.31 65.3995 39.1544 65.8171 39.3778Z" fill="#74E2C7"/>
<path d="M83.8982 49.1374C84.1713 49.3207 84.3913 49.5479 84.4836 49.8811C84.0017 49.8706 83.887 49.5555 83.8982 49.1374Z" fill="#74E2C7"/>
<path d="M79.2395 44.554C79.5294 44.7211 79.7326 44.9598 79.8239 45.292C79.3355 45.2891 79.2264 44.9722 79.2395 44.554Z" fill="#74E2C7"/>
<path d="M78.492 43.6433C78.7679 43.8056 78.9645 44.0356 79.0624 44.3488C78.6169 44.3306 78.4817 44.048 78.492 43.6433Z" fill="#74E2C7"/>
<path d="M62.4634 41.1067C62.3394 41.3511 62.1576 41.5315 61.9013 41.627C61.8733 41.2098 62.0914 41.0704 62.4634 41.1067Z" fill="#74E2C7"/>
<path d="M82.9782 47.7779C83.2084 47.8992 83.3128 48.1063 83.3604 48.3546C82.9763 48.3412 82.9596 48.072 82.9782 47.7779Z" fill="#74E2C7"/>
<path d="M82.611 47.1994C82.8421 47.3216 82.94 47.5326 82.9819 47.7818C82.5988 47.7607 82.5858 47.4925 82.611 47.1994Z" fill="#74E2C7"/>
<path d="M63.209 40.5339C63.0916 40.7621 62.8884 40.869 62.6591 40.9377C62.6619 40.5454 62.9229 40.5225 63.209 40.5339Z" fill="#74E2C7"/>
<path d="M87.1494 50.6582C87.128 50.5064 87.1783 50.3823 87.2846 50.2792C87.5166 50.5092 87.3824 50.6028 87.1494 50.6582Z" fill="#74E2C7"/>
<path d="M71.4135 40.3306C71.1926 40.3143 71.0323 40.1979 70.912 40.0136C71.1805 39.9506 71.3688 40.0203 71.4135 40.3306Z" fill="#74E2C7"/>
<path d="M63.9463 40.1205C63.8662 40.2656 63.7506 40.3468 63.5819 40.3287C63.6182 40.1014 63.6555 39.8781 63.9463 40.1205Z" fill="#74E2C7"/>
<path d="M69.7394 39.5C69.5856 39.542 69.4682 39.478 69.3684 39.3644C69.5921 39.1229 69.6835 39.2604 69.7394 39.5Z" fill="#74E2C7"/>
<path d="M68.9947 39.2833C68.8623 39.2852 68.7262 39.3043 68.6144 39.2021C68.7971 38.953 68.9145 39.0274 68.9947 39.2833Z" fill="#74E2C7"/>
<path d="M72.1601 44.933C72.2347 44.786 72.3549 44.7087 72.5134 44.6896C72.4966 44.9244 72.505 45.1975 72.1601 44.933Z" fill="#74E2C7"/>
<path d="M71.2532 45.2022C71.4042 45.0543 71.5729 44.9597 71.791 45.017C71.6885 45.312 71.489 45.313 71.2532 45.2022Z" fill="#74E2C7"/>
<path d="M79.8174 45.2843C80.0178 45.3416 80.153 45.4648 80.1921 45.6815C79.9321 45.6834 79.8053 45.5526 79.8174 45.2843Z" fill="#74E2C7"/>
<path d="M83.5673 48.639C83.7546 48.7479 83.8665 48.9092 83.8935 49.1297C83.6046 49.0916 83.5253 48.9073 83.5673 48.639Z" fill="#74E2C7"/>
<path d="M70.2996 45.5173C70.404 45.4161 70.5121 45.3273 70.6706 45.3741C70.6193 45.6194 70.5326 45.7664 70.2996 45.5173Z" fill="#74E2C7"/>
</svg>
