<svg width="19" height="18" viewBox="0 0 19 18" fill="none" xmlns="http://www.w3.org/2000/svg">
<path d="M17.45 18C17.6167 18 17.7917 17.9957 17.975 17.987C18.1583 17.9783 18.3333 17.966 18.5 17.95V12.1L13.5 11.1L10.6 14C9.33333 13.2333 8.17067 12.325 7.112 11.275C6.05333 10.225 5.17433 9.1 4.475 7.9L7.325 5.025L6.4 0H0.549999C0.516666 0.166667 0.5 0.341667 0.5 0.525V1.05C0.5 3.2 0.979 5.296 1.937 7.338C2.895 9.38 4.16167 11.1923 5.737 12.775C7.31233 14.3583 9.12067 15.625 11.162 16.575C13.2033 17.525 15.2993 18 17.45 18Z" fill="#74E2C7"/>
</svg>
