<svg width="42" height="42" viewBox="0 0 42 42" fill="none" xmlns="http://www.w3.org/2000/svg">
<path d="M21.0017 3.5C30.667 3.5 38.5017 11.3348 38.5017 21C38.5017 30.6652 30.667 38.5 21.0017 38.5C17.9091 38.505 14.8709 37.6865 12.1992 36.1287L3.50873 38.5L5.87473 29.806C4.31565 27.1335 3.49657 24.094 3.50173 21C3.50173 11.3348 11.3365 3.5 21.0017 3.5ZM15.0377 12.775L14.6877 12.789C14.4611 12.8028 14.2397 12.8623 14.0367 12.964C13.8469 13.0715 13.6736 13.2059 13.5222 13.363C13.3122 13.5608 13.1932 13.7323 13.0655 13.8985C12.4182 14.7401 12.0697 15.7733 12.075 16.835C12.0785 17.6925 12.3025 18.5273 12.6525 19.3077C13.3682 20.8862 14.546 22.5575 16.1 24.1062C16.4745 24.479 16.842 24.8535 17.2375 25.2017C19.1684 26.9018 21.4694 28.1278 23.9575 28.7823L24.9515 28.9345C25.2752 28.952 25.599 28.9275 25.9245 28.9118C26.4342 28.8854 26.9318 28.7474 27.3822 28.5075C27.6114 28.3895 27.8351 28.261 28.0525 28.1225C28.0525 28.1225 28.1277 28.0735 28.2712 27.965C28.5075 27.79 28.6527 27.6658 28.8487 27.461C28.994 27.3105 29.12 27.1338 29.2162 26.9325C29.3527 26.6473 29.4892 26.103 29.5452 25.6497C29.5872 25.3032 29.575 25.1143 29.5697 24.997C29.5627 24.8098 29.407 24.6155 29.2372 24.5333L28.2187 24.0765C28.2187 24.0765 26.6962 23.4132 25.7652 22.9897C25.6678 22.9472 25.5634 22.9229 25.4572 22.918C25.3375 22.9057 25.2165 22.9192 25.1024 22.9575C24.9883 22.9958 24.8838 23.0582 24.7957 23.1402C24.787 23.1367 24.6697 23.2365 23.4045 24.7695C23.3319 24.8671 23.2318 24.9408 23.1171 24.9813C23.0024 25.0219 22.8783 25.0273 22.7605 24.997C22.6465 24.9664 22.5348 24.9278 22.4262 24.8815C22.2092 24.7905 22.134 24.7555 21.9852 24.6925C20.9809 24.2542 20.0509 23.662 19.229 22.9373C19.0085 22.7448 18.8037 22.5347 18.5937 22.3317C17.9053 21.6724 17.3053 20.9265 16.8087 20.1128L16.7055 19.9465C16.6313 19.8348 16.5714 19.7143 16.527 19.5877C16.4605 19.3305 16.6337 19.124 16.6337 19.124C16.6337 19.124 17.059 18.6585 17.2567 18.4065C17.4492 18.1615 17.612 17.9235 17.717 17.7538C17.9235 17.4213 17.9882 17.08 17.8797 16.8158C17.3897 15.6188 16.8822 14.427 16.3607 13.244C16.2575 13.0095 15.9512 12.8415 15.673 12.8082C15.5785 12.7977 15.484 12.7872 15.3895 12.7802C15.1545 12.7686 14.919 12.7709 14.6842 12.7873L15.036 12.7732L15.0377 12.775Z" fill="white"/>
</svg>
